<svg width="22" height="25" viewBox="0 0 22 25" fill="none" xmlns="http://www.w3.org/2000/svg">
<path d="M17.4286 2V5.79897C17.4286 6.31721 17.2783 6.82384 16.9967 7.25505L14.5223 11.0439C13.9465 11.9257 13.9465 13.0743 14.5223 13.9561L16.9967 17.745C17.2783 18.1762 17.4286 18.6828 17.4286 19.2011V23M17.4286 2H20M17.4286 2H4.57143M17.4286 23H20M17.4286 23H4.57143M4.57143 2V5.79897C4.57143 6.31721 4.7217 6.82384 5.0033 7.25505L7.47766 11.0439C8.05349 11.9257 8.05349 13.0743 7.47766 13.9561L5.0033 17.745C4.7217 18.1762 4.57143 18.6828 4.57143 19.2011V23M4.57143 2H2M4.57143 23H2" stroke="black" stroke-width="3" stroke-linecap="round" stroke-linejoin="round"/>
</svg>
